<svg id="Medium_Weight" data-name="Medium Weight" xmlns="http://www.w3.org/2000/svg" viewBox="0 0 572.65 166.86"><defs><style>.cls-1{fill:#003b71;}</style></defs><title>Kognition541Vtag</title><g id="Med_K1" data-name="Med K1"><path class="cls-1" d="M413.74,261a5.26,5.26,0,0,1,5.52,5.4V333a5.46,5.46,0,0,1-10.92,0V266.4A5.23,5.23,0,0,1,413.74,261Z" transform="translate(-103.76 -237.77)"/><path class="cls-1" d="M464.86,333a5.46,5.46,0,0,1-10.92,0V271.44H434.62a5.1,5.1,0,0,1,0-10.2h49.55a5.1,5.1,0,0,1,0,10.2H464.86Z" transform="translate(-103.76 -237.77)"/><path class="cls-1" d="M499.54,333v-66.6a5.46,5.46,0,0,1,10.92,0V333a5.46,5.46,0,0,1-10.92,0Z" transform="translate(-103.76 -237.77)"/><path class="cls-1" d="M260.64,315.1a7.14,7.14,0,0,1,2.23.37,29.75,29.75,0,0,1-4.41-15.71c0-16.2,11.4-29.28,27.83-29.28,13.08,0,17.88,6.36,22.56,6.36,2.64,0,4.8-1.56,4.8-4.68,0-5.52-11.88-12.36-26.4-12.36-24,0-40.31,17.88-40.31,40a40.3,40.3,0,0,0,6.7,22.4v-.06A7,7,0,0,1,260.64,315.1Z" transform="translate(-103.76 -237.77)"/><path class="cls-1" d="M308.61,298.56a5.26,5.26,0,0,0-5.4,5.52v22a39.74,39.74,0,0,1-16.08,2.88,28.27,28.27,0,0,1-19.54-7.66,7.89,7.89,0,0,1,.05.84,7,7,0,0,1-7,7,6.92,6.92,0,0,1-1.22-.11,39,39,0,0,0,27,10.61c16.2,0,27.6-5.52,27.6-14.28V304.08A5.26,5.26,0,0,0,308.61,298.56Z" transform="translate(-103.76 -237.77)"/><path class="cls-1" d="M367.51,304.18a6.75,6.75,0,0,1,1.57.18l-28.19-37.84c-2.4-3.6-4.44-5.64-8.16-5.64-4,0-6.23,2.64-6.23,7V333a5.46,5.46,0,0,0,10.91,0V280l23.12,30.84A7,7,0,0,1,367.51,304.18Z" transform="translate(-103.76 -237.77)"/><path class="cls-1" d="M386.25,261a5.23,5.23,0,0,0-5.4,5.4v53.76l-6.36-8.55a7,7,0,0,1-7,6.57,7.08,7.08,0,0,1-1.6-.19l11,14.65c2.76,3.72,4.8,5.88,9,5.88,3.6,0,5.76-2.64,5.76-6.84V266.4A5.17,5.17,0,0,0,386.25,261Z" transform="translate(-103.76 -237.77)"/><path class="cls-1" d="M671,289.35a7,7,0,0,1,5.39,2.53V266.4A5.17,5.17,0,0,0,671,261a5.23,5.23,0,0,0-5.4,5.4v25.52A7,7,0,0,1,671,289.35Z" transform="translate(-103.76 -237.77)"/><path class="cls-1" d="M671,303.35a7,7,0,0,1-5.41-2.56v19.37l-40-53.64c-2.4-3.6-4.44-5.64-8.16-5.64-4,0-6.24,2.64-6.24,7V333a5.46,5.46,0,0,0,10.92,0V280l39.48,52.68c2.76,3.72,4.8,5.88,9,5.88,3.6,0,5.76-2.64,5.76-6.84V300.82A7,7,0,0,1,671,303.35Z" transform="translate(-103.76 -237.77)"/><circle class="cls-1" cx="310.06" cy="7" r="7"/><circle class="cls-1" cx="401.28" cy="116.46" r="7"/><path class="cls-1" d="M109.05,285.14a7,7,0,0,1,5.63,2.85V266.2a5.46,5.46,0,0,0-10.92,0v21.36A7,7,0,0,1,109.05,285.14Z" transform="translate(-103.76 -237.77)"/><path class="cls-1" d="M133.06,294l28.38-24c3.68-3.53,2.79-8.12-1.67-9.05-2.58-.54-4.36.32-7.13,3.05l-38,32.54v-.21a7,7,0,0,1-10.92.44v36.07a5.46,5.46,0,0,0,10.92,0V309.51l10.71-9.05,26.93,34.13c1.92,2.88,3.84,3.72,6.24,3.72,4.08,0,7-4,3.48-9Z" transform="translate(-103.76 -237.77)"/><path class="cls-1" d="M228.09,269.26a6.89,6.89,0,0,1,.36,2.19,7,7,0,0,1-6.58,7,30,30,0,0,1,8.85,21.45c0,16-12.47,29-27.95,29a27,27,0,0,1-17.52-6.52,29.65,29.65,0,0,1-10.32-22.64c0-16.2,12.48-29.28,27.84-29.28a26.58,26.58,0,0,1,11.94,2.83,6.69,6.69,0,0,1-.26-1.86,7,7,0,0,1,6.7-7,38.39,38.39,0,0,0-18.38-4.67c-21.72,0-39.36,17.88-39.36,40a40,40,0,0,0,15.14,31.37,38.88,38.88,0,0,0,24.22,8.47,39.54,39.54,0,0,0,39.35-39.72A40.27,40.27,0,0,0,228.09,269.26Z" transform="translate(-103.76 -237.77)"/><path class="cls-1" d="M586.08,268.74a38.92,38.92,0,0,0-25-9.07,39.54,39.54,0,0,0-39.36,39.72,40.28,40.28,0,0,0,15.82,32.09,7,7,0,0,1,6.35-8.93,29.87,29.87,0,0,1-10.77-23.16c0-16,12.48-29,28-29A27,27,0,0,1,579.87,278a29.7,29.7,0,0,1,9.07,21.51c0,16.2-12.48,29.28-27.84,29.28a26.58,26.58,0,0,1-10.44-2.13,7,7,0,0,1-4.76,9.68,38.58,38.58,0,0,0,15.2,3.13c21.72,0,39.36-17.88,39.36-40A40,40,0,0,0,586.08,268.74Z" transform="translate(-103.76 -237.77)"/></g><path class="cls-1" d="M252.2,383.29v13.07a1.47,1.47,0,0,1-2.94,0v-1.09a6.62,6.62,0,0,1-5.56,2.88c-4.3,0-7.68-3.54-7.68-8.34s3.25-8.31,7.68-8.31a6.62,6.62,0,0,1,5.56,2.78v-1a1.47,1.47,0,0,1,2.94,0Zm-2.94,6.52c0-3.11-2.12-5.56-5.13-5.56a5.59,5.59,0,0,0,0,11.15C247.14,395.4,249.26,392.88,249.26,389.81Z" transform="translate(-103.76 -237.77)"/><path class="cls-1" d="M268.63,384.18a1.14,1.14,0,0,1-1.19,1.16c-1.1,0-1.92-1.09-4.47-1.09a5.58,5.58,0,0,0,0,11.15c2.55,0,3.37-1.09,4.47-1.09a1.15,1.15,0,0,1,1.19,1.19c0,1.46-2.58,2.65-5.5,2.65a8.33,8.33,0,1,1,.07-16.65C266.08,381.5,268.63,382.69,268.63,384.18Z" transform="translate(-103.76 -237.77)"/><path class="cls-1" d="M280.52,394.84a1.07,1.07,0,0,1,1.15,1.09c0,1.13-1.35,2.22-3.67,2.22-3,0-4.8-1.76-4.8-5.17v-8.47h-1.75a1.31,1.31,0,0,1,0-2.61h1.75v-2.51a1.42,1.42,0,0,1,1.46-1.49,1.44,1.44,0,0,1,1.49,1.49v2.51h3.6a1.31,1.31,0,0,1,0,2.61h-3.57v8.74c0,1.49.7,2.15,1.95,2.15S279.85,394.84,280.52,394.84Z" transform="translate(-103.76 -237.77)"/><path class="cls-1" d="M287.37,377.33a1.83,1.83,0,0,1-1.82,1.82,1.82,1.82,0,0,1,0-3.64A1.84,1.84,0,0,1,287.37,377.33Zm-1.78,20.49a1.4,1.4,0,0,1-1.49-1.46V383.29a1.39,1.39,0,0,1,1.45-1.46,1.42,1.42,0,0,1,1.49,1.46v13.07A1.41,1.41,0,0,1,285.59,397.82Z" transform="translate(-103.76 -237.77)"/><path class="cls-1" d="M305.21,388.05v8.31a1.39,1.39,0,0,1-1.46,1.46,1.41,1.41,0,0,1-1.48-1.46v-7.84c0-2.62-1.53-4.27-4-4.27a3.75,3.75,0,0,0-4,3.61v8.5a1.47,1.47,0,0,1-2.94,0V383.29a1.39,1.39,0,0,1,1.46-1.46,1.41,1.41,0,0,1,1.48,1.46v.53a5.5,5.5,0,0,1,4.73-2.32C302.79,381.5,305.21,384.05,305.21,388.05Z" transform="translate(-103.76 -237.77)"/><path class="cls-1" d="M324.18,383.29v13.33c0,5.86-3.7,8-8,8-3.54,0-7-1.39-7-3.07a1.15,1.15,0,0,1,1.25-1.16c1.13,0,2.38,1.55,5.63,1.55s5.26-1.78,5.26-5.16v-2a6.65,6.65,0,0,1-5.56,2.84c-4.24,0-7.55-3.44-7.55-8.14s3.31-8,7.55-8a6.7,6.7,0,0,1,5.56,2.68v-.89a1.46,1.46,0,1,1,2.91,0Zm-2.91,6.25a5.09,5.09,0,1,0-5.06,5.37A5.12,5.12,0,0,0,321.27,389.54Z" transform="translate(-103.76 -237.77)"/><path class="cls-1" d="M344.35,381.5a8.33,8.33,0,1,1-8.08,8.31A8.15,8.15,0,0,1,344.35,381.5Zm0,2.75a5.59,5.59,0,0,0,0,11.15c3,0,5.13-2.52,5.13-5.59S347.39,384.25,344.38,384.25Z" transform="translate(-103.76 -237.77)"/><path class="cls-1" d="M368.85,388.05v8.31a1.4,1.4,0,0,1-1.46,1.46,1.42,1.42,0,0,1-1.49-1.46v-7.84c0-2.62-1.52-4.27-4-4.27a3.74,3.74,0,0,0-4,3.61v8.5a1.48,1.48,0,0,1-2.95,0V383.29a1.4,1.4,0,0,1,1.46-1.46,1.42,1.42,0,0,1,1.49,1.46v.53a5.49,5.49,0,0,1,4.73-2.32C366.43,381.5,368.85,384.05,368.85,388.05Z" transform="translate(-103.76 -237.77)"/><path class="cls-1" d="M385.11,377.33a1.83,1.83,0,0,1-1.82,1.82,1.82,1.82,0,0,1,0-3.64A1.84,1.84,0,0,1,385.11,377.33Zm-1.79,20.49a1.4,1.4,0,0,1-1.49-1.46V383.29a1.4,1.4,0,0,1,1.46-1.46,1.42,1.42,0,0,1,1.49,1.46v13.07A1.41,1.41,0,0,1,383.32,397.82Z" transform="translate(-103.76 -237.77)"/><path class="cls-1" d="M403.61,388.05v8.31a1.39,1.39,0,0,1-1.46,1.46,1.41,1.41,0,0,1-1.48-1.46v-7.84c0-2.62-1.53-4.27-4-4.27a3.74,3.74,0,0,0-4,3.61v8.5a1.47,1.47,0,0,1-2.94,0V383.29a1.39,1.39,0,0,1,1.45-1.46,1.42,1.42,0,0,1,1.49,1.46v.53a5.5,5.5,0,0,1,4.73-2.32C401.19,381.5,403.61,384.05,403.61,388.05Z" transform="translate(-103.76 -237.77)"/><path class="cls-1" d="M415.77,394.84a1.07,1.07,0,0,1,1.15,1.09c0,1.13-1.35,2.22-3.67,2.22-3,0-4.8-1.76-4.8-5.17v-8.47H406.7a1.31,1.31,0,0,1,0-2.61h1.75v-2.51a1.42,1.42,0,0,1,1.46-1.49,1.44,1.44,0,0,1,1.49,1.49v2.51H415a1.31,1.31,0,0,1,0,2.61h-3.57v8.74c0,1.49.7,2.15,1.95,2.15S415.1,394.84,415.77,394.84Z" transform="translate(-103.76 -237.77)"/><path class="cls-1" d="M431.06,390.57H420.24a5.34,5.34,0,0,0,5.43,5c2.84,0,3.8-1.39,4.73-1.39a1.06,1.06,0,0,1,1.16,1.09c0,1.43-2.59,2.92-6,2.92a8.17,8.17,0,0,1-8.31-8.34c0-4.6,3.24-8.31,7.94-8.31a7.36,7.36,0,0,1,7.65,7.28A1.64,1.64,0,0,1,431.06,390.57Zm-10.76-1.95h9.6c-.36-2.95-2.28-4.6-4.77-4.6S420.73,386,420.3,388.62Z" transform="translate(-103.76 -237.77)"/><path class="cls-1" d="M437.26,374.92a1.4,1.4,0,0,1,1.48,1.45v20a1.47,1.47,0,0,1-2.94,0v-20A1.38,1.38,0,0,1,437.26,374.92Z" transform="translate(-103.76 -237.77)"/><path class="cls-1" d="M445.87,374.92a1.4,1.4,0,0,1,1.48,1.45v20a1.47,1.47,0,0,1-2.94,0v-20A1.38,1.38,0,0,1,445.87,374.92Z" transform="translate(-103.76 -237.77)"/><path class="cls-1" d="M455.63,377.33a1.83,1.83,0,0,1-1.82,1.82,1.82,1.82,0,0,1,0-3.64A1.84,1.84,0,0,1,455.63,377.33Zm-1.79,20.49a1.4,1.4,0,0,1-1.49-1.46V383.29a1.4,1.4,0,0,1,1.46-1.46,1.42,1.42,0,0,1,1.49,1.46v13.07A1.41,1.41,0,0,1,453.84,397.82Z" transform="translate(-103.76 -237.77)"/><path class="cls-1" d="M475.16,383.29v13.33c0,5.86-3.71,8-8,8-3.54,0-7-1.39-7-3.07a1.16,1.16,0,0,1,1.26-1.16c1.13,0,2.38,1.55,5.62,1.55s5.27-1.78,5.27-5.16v-2a6.66,6.66,0,0,1-5.56,2.84c-4.24,0-7.55-3.44-7.55-8.14s3.31-8,7.55-8a6.72,6.72,0,0,1,5.56,2.68v-.89a1.46,1.46,0,1,1,2.91,0Zm-2.91,6.25a5.09,5.09,0,1,0-5.07,5.37A5.12,5.12,0,0,0,472.25,389.54Z" transform="translate(-103.76 -237.77)"/><path class="cls-1" d="M492.18,390.57H481.36a5.33,5.33,0,0,0,5.42,5c2.85,0,3.81-1.39,4.74-1.39a1.06,1.06,0,0,1,1.15,1.09c0,1.43-2.58,2.92-6,2.92a8.17,8.17,0,0,1-8.3-8.34c0-4.6,3.24-8.31,7.94-8.31a7.36,7.36,0,0,1,7.64,7.28A1.64,1.64,0,0,1,492.18,390.57Zm-10.76-1.95H491c-.36-2.95-2.29-4.6-4.77-4.6S481.85,386,481.42,388.62Z" transform="translate(-103.76 -237.77)"/><path class="cls-1" d="M510.75,388.05v8.31a1.39,1.39,0,0,1-1.46,1.46,1.41,1.41,0,0,1-1.48-1.46v-7.84c0-2.62-1.53-4.27-4-4.27a3.74,3.74,0,0,0-4,3.61v8.5a1.47,1.47,0,0,1-2.94,0V383.29a1.39,1.39,0,0,1,1.46-1.46,1.42,1.42,0,0,1,1.48,1.46v.53a5.5,5.5,0,0,1,4.73-2.32C508.33,381.5,510.75,384.05,510.75,388.05Z" transform="translate(-103.76 -237.77)"/><path class="cls-1" d="M527.57,384.18a1.14,1.14,0,0,1-1.19,1.16c-1.09,0-1.92-1.09-4.47-1.09a5.58,5.58,0,0,0,0,11.15c2.55,0,3.38-1.09,4.47-1.09a1.15,1.15,0,0,1,1.19,1.19c0,1.46-2.58,2.65-5.49,2.65a8.33,8.33,0,1,1,.06-16.65C525,381.5,527.57,382.69,527.57,384.18Z" transform="translate(-103.76 -237.77)"/><path class="cls-1" d="M542.34,390.57H531.52a5.33,5.33,0,0,0,5.42,5c2.85,0,3.81-1.39,4.74-1.39a1.06,1.06,0,0,1,1.15,1.09c0,1.43-2.58,2.92-6,2.92a8.17,8.17,0,0,1-8.3-8.34c0-4.6,3.24-8.31,7.94-8.31a7.36,7.36,0,0,1,7.64,7.28A1.64,1.64,0,0,1,542.34,390.57Zm-10.76-1.95h9.6c-.36-2.95-2.29-4.6-4.77-4.6S532,386,531.58,388.62Z" transform="translate(-103.76 -237.77)"/></svg>